<svg width="32" height="32" viewBox="0 0 32 32" fill="none" xmlns="http://www.w3.org/2000/svg">
<path d="M7.82994 13.829C8.90162 14.5811 10.1666 15.2588 11.4254 15.6866V17.8125H13.3004V16.1902C14.1801 16.3619 15.0804 16.4502 15.9916 16.451C18.9193 16.4684 21.794 15.5161 24.1703 13.8286V7.65477L27.7399 5.86987L15.9999 0L4.26013 5.86987L7.82973 7.65467L7.82994 13.829ZM11.4254 13.6834C10.8317 13.4414 10.2565 13.1515 9.70488 12.8148V8.59239L11.4254 9.45261V13.6834ZM22.2953 12.8151C20.4079 13.9688 18.2435 14.576 16.0035 14.576H15.9931C15.0784 14.5753 14.1764 14.4732 13.3003 14.2744V10.3901L16.0001 11.74L22.2953 8.59229L22.2953 12.8151ZM16.0001 2.09645L23.5473 5.87005L16.0001 9.64365L8.45288 5.87005L16.0001 2.09645Z" fill="#BBBBBB"/>
<path d="M31.9974 20.9825C30.2232 21.3553 27.3857 22.0942 23.0974 20.3845C21.0454 19.4771 18.9806 19.5349 17.4326 20.543C16.8566 20.9181 16.375 21.4095 15.9991 21.9914C15.6233 21.4096 15.1418 20.9181 14.5658 20.543C13.0178 19.535 10.953 19.4772 8.90101 20.3845C3.77381 22.2667 1.75968 21.2327 -0.000854492 20.9776V30.1176H12.2367C13.1186 31.291 14.5147 32.0005 15.9991 32.0005C17.4836 32.0005 18.8797 31.291 19.7615 30.1176H22.593V32.0005L25.4133 31.0644L28.2335 32.0005V30.1176H31.9991L31.9974 20.9825ZM1.87472 23.2376C3.48275 23.4084 6.55712 23.4714 9.65979 22.0993C11.1425 21.4438 12.5217 21.4488 13.543 22.1141C14.4812 22.725 15.0143 23.8267 15.0579 25.2277C14.2754 24.7674 13.2265 24.4694 12.2808 24.4769L1.87469 24.4768L1.87472 23.2376ZM22.5934 28.2424H18.7198C18.2225 29.322 17.2081 30.1367 15.9998 30.1253C14.8144 30.1572 13.7705 29.3076 13.2798 28.2424H1.87499V26.3518L12.2854 26.3519C14.2593 26.3791 15.1435 27.648 15.9987 28.8928C16.988 27.3296 18.1101 26.3467 19.7187 26.3519H22.5937L22.5934 28.2424ZM26.359 29.4023L25.4137 29.0884L24.4684 29.4023V26.3519H26.359V29.4023ZM19.7243 24.477C18.8247 24.4653 17.7647 24.745 16.9414 25.2281C16.9849 23.827 17.5181 22.7251 18.4563 22.1143C19.4778 21.4491 20.8568 21.4438 22.3395 22.0995C25.4427 23.4717 28.5166 23.4087 30.1246 23.2377V24.4771L19.7243 24.477ZM30.1246 28.2426H28.234V26.352H30.1246V28.2426Z" fill="#BBBBBB"/>
</svg>
