<svg width="32" height="32" viewBox="0 0 32 32" fill="none" xmlns="http://www.w3.org/2000/svg">
<path d="M22 12C21.7348 12 21.4804 12.1054 21.2929 12.2929C21.1054 12.4804 21 12.7348 21 13C21 13.2652 21.1054 13.5196 21.2929 13.7071C21.4804 13.8946 21.7348 14 22 14C22.2652 14 22.5196 13.8946 22.7071 13.7071C22.8946 13.5196 23 13.2652 23 13C23 12.7348 22.8946 12.4804 22.7071 12.2929C22.5196 12.1054 22.2652 12 22 12ZM22 16C21.7348 16 21.4804 16.1054 21.2929 16.2929C21.1054 16.4804 21 16.7348 21 17C21 17.2652 21.1054 17.5196 21.2929 17.7071C21.4804 17.8946 21.7348 18 22 18C22.2652 18 22.5196 17.8946 22.7071 17.7071C22.8946 17.5196 23 17.2652 23 17C23 16.7348 22.8946 16.4804 22.7071 16.2929C22.5196 16.1054 22.2652 16 22 16ZM24 14C23.7348 14 23.4804 14.1054 23.2929 14.2929C23.1054 14.4804 23 14.7348 23 15C23 15.2652 23.1054 15.5196 23.2929 15.7071C23.4804 15.8946 23.7348 16 24 16C24.2652 16 24.5196 15.8946 24.7071 15.7071C24.8946 15.5196 25 15.2652 25 15C25 14.7348 24.8946 14.4804 24.7071 14.2929C24.5196 14.1054 24.2652 14 24 14ZM20 14C19.7348 14 19.4804 14.1054 19.2929 14.2929C19.1054 14.4804 19 14.7348 19 15C19 15.2652 19.1054 15.5196 19.2929 15.7071C19.4804 15.8946 19.7348 16 20 16C20.2652 16 20.5196 15.8946 20.7071 15.7071C20.8946 15.5196 21 15.2652 21 15C21 14.7348 20.8946 14.4804 20.7071 14.2929C20.5196 14.1054 20.2652 14 20 14Z" fill="white"/>
<path d="M10 18V12V18ZM7 15H13H7ZM27.635 10C27.635 10 22.166 8 15.999 8C9.832 8 4.365 10 4.365 10L3.035 20.268C2.739 22.567 4.363 24.67 6.662 24.966C8.961 25.262 11.064 23.638 11.359 21.339L11.403 21H20.598L20.642 21.338C20.938 23.637 23.041 25.261 25.339 24.965C27.638 24.669 29.262 22.566 28.966 20.267L27.635 10Z" stroke="white" stroke-width="2" stroke-miterlimit="10"/>
</svg>
