<svg width="32" height="32" viewBox="0 0 32 32" fill="none" xmlns="http://www.w3.org/2000/svg">
<path d="M10.1667 14.4037L5.40995 19.1602L10.1667 14.4037ZM10.1667 14.4037L14.9235 19.1606L14.9236 19.1606C15.1057 19.3426 15.3448 19.4338 15.5836 19.4338C15.8223 19.4338 16.0614 19.3426 16.2436 19.1605L19.1602 16.2438C19.1603 16.2438 19.1603 16.2438 19.1603 16.2438C19.525 15.8794 19.525 15.2884 19.1603 14.9239C19.1603 14.9239 19.1603 14.9239 19.1603 14.9239L14.4037 10.1671L19.1605 5.41034L19.1606 5.4103L19.0898 5.33959M10.1667 14.4037L19.1606 4.09048L19.0898 4.1612M19.0898 5.33959C19.4155 5.01428 19.4155 4.48661 19.0898 4.1612M19.0898 5.33959L14.333 10.0964L19.0898 5.33959ZM19.0898 4.1612L19.1605 4.09046L16.2439 1.17383M19.0898 4.1612L16.1732 1.24451C15.8478 0.918868 15.3198 0.918868 14.9948 1.24451M14.9948 1.24451L14.9241 1.17379L14.924 1.17386M14.9948 1.24451L14.924 1.17386M14.9948 1.24451L10.2377 6.00077L10.1669 5.93007M14.924 1.17386C15.2882 0.809071 15.8795 0.809106 16.2439 1.17383M14.924 1.17386L10.1669 5.93007M16.2439 1.17383L16.2439 1.1738L16.1732 1.2445L16.2439 1.17383ZM10.1669 5.93007L10.0962 6.00077L5.41015 1.17356L10.1669 5.93007ZM1.24431 5.33931C0.918673 5.0139 0.918673 4.48622 1.24431 4.16092L1.1736 4.09021L1.17364 4.09017L4.09023 1.17358C4.09025 1.17356 4.09027 1.17354 4.09029 1.17352C4.45445 0.808806 5.04577 0.808848 5.41011 1.17352L1.1736 5.41002L1.24431 5.33931ZM1.24431 5.33931L1.17363 5.41005M1.24431 5.33931L1.17363 5.41005M1.17363 5.41005L5.92988 10.1668L1.17334 14.9237M1.17363 5.41005L1.17334 14.9237M1.17334 14.9237C0.808845 15.288 0.808914 15.8792 1.17338 16.2436C1.17339 16.2436 1.17339 16.2436 1.17339 16.2436L4.09004 19.1602M1.17334 14.9237L4.09004 19.1602M4.09004 19.1602C4.45437 19.525 5.04572 19.525 5.40989 19.1603L4.09004 19.1602ZM7.91011 9.50705C8.27482 9.87151 8.27485 10.4625 7.91013 10.8269C7.91012 10.8269 7.91011 10.8269 7.9101 10.8269L3.15336 15.5837L4.7499 17.1803L9.50673 12.4237C9.68891 12.2415 9.92798 12.1504 10.1667 12.1504C10.4055 12.1504 10.6446 12.2415 10.8268 12.4237L15.5836 17.1803L17.1801 15.5837L12.4236 10.8269C12.4236 10.8269 12.4236 10.8269 12.4236 10.8269C12.0589 10.4624 12.0589 9.87141 12.4236 9.50704M7.91011 9.50705L12.4943 9.57779M7.91011 9.50705L3.15358 4.75026L4.75012 3.15372M7.91011 9.50705L4.75012 3.15372M12.4236 9.50704L12.4943 9.57779M12.4236 9.50704L12.4236 9.50708L12.4943 9.57779M12.4236 9.50704L17.1801 4.75026M12.4943 9.57779L17.2508 4.82097L17.1801 4.75026M17.1801 4.75026L15.5836 3.15372M17.1801 4.75026L17.2508 4.67955M17.2508 4.67955L15.6543 3.08301L15.5836 3.15372M17.2508 4.67955L9.57766 7.83983C9.90297 8.16547 10.431 8.16547 10.7561 7.83983M17.2508 4.67955L10.8268 7.91048M15.5836 3.15372L15.5129 3.08301L10.7561 7.83983M15.5836 3.15372L10.8268 7.91048M10.7561 7.83983L10.8268 7.91048M10.7561 7.83983L10.8268 7.91054L10.8268 7.91048M4.75012 3.15372L9.50691 7.9105L9.50695 7.91054L4.75012 3.15372ZM17.3216 15.5837L17.2508 15.513L17.2508 15.6544L17.3216 15.5837Z" fill="#fff" stroke="none" stroke-width="0.2"/>
<path d="M26.5546 12.3883C26.9383 12.0039 27.5614 12.0039 27.9453 12.3882L30.8619 15.305C30.8619 15.305 30.8619 15.3051 30.8619 15.3051C31.2461 15.6891 31.2461 16.3118 30.8618 16.6957L16.6951 30.8624L16.5891 30.7563L16.6951 30.8624C16.5032 31.0543 16.2512 31.1503 15.9998 31.1503C15.7483 31.1503 15.4962 31.0543 15.3045 30.862L6.55458 22.1121C6.55457 22.1121 6.55456 22.1121 6.55455 22.1121C6.17032 21.7281 6.17031 21.1054 6.5546 20.7215L9.47114 17.805L9.47123 17.8049L9.5773 17.9109C9.90238 17.5853 10.4304 17.5853 10.7557 17.9109L26.5546 12.3883ZM26.5546 12.3883L15.9999 22.9427L10.8618 17.8049L26.5546 12.3883ZM8.64065 21.4168L16 28.7761L28.7758 16.0001L27.25 14.4743L16.6952 25.029L16.6951 25.0291L8.64065 21.4168ZM8.64065 21.4168L10.1665 19.891L15.3046 25.029L15.3046 25.0291L15.4107 24.923L8.64065 21.4168Z" fill="none" stroke="#BBBBBB" stroke-width="0.5"/>
</svg>
