<svg width="30" height="30" viewBox="0 0 30 30" fill="none" xmlns="http://www.w3.org/2000/svg">
<path d="M0.244092 15.1729L3.16078 18.0896C3.48609 18.4152 4.01409 18.4152 4.33918 18.0896L9.16672 13.2623L13.9943 18.0898C14.1569 18.2524 14.3702 18.3338 14.5836 18.3338C14.7969 18.3338 15.0102 18.2524 15.1729 18.0897L18.0896 15.1731C18.4152 14.8477 18.4152 14.3201 18.0896 13.9947L13.2623 9.16712L18.0898 4.33959C18.4155 4.01428 18.4155 3.48661 18.0898 3.1612L15.1732 0.244509C14.8478 -0.0811324 14.3198 -0.0811324 13.9948 0.244509L9.16694 5.07149L4.3394 0.244231C4.01409 -0.0814103 3.48609 -0.0814103 3.161 0.244231L0.244314 3.16092C-0.0813271 3.48622 -0.0813271 4.0139 0.244314 4.33931L5.0713 9.16685L0.244037 13.9944C-0.0813827 14.3197 -0.081327 14.8476 0.244092 15.1729ZM6.83942 9.75618C7.16506 9.43087 7.16506 8.9032 6.83942 8.57779L2.01216 3.75025L3.75012 2.0123L8.57766 6.83983C8.90297 7.16547 9.43097 7.16547 9.75606 6.83983L14.5836 2.0123L16.3216 3.75025L11.4943 8.57779C11.1687 8.90309 11.1687 9.43076 11.4943 9.75618L16.3216 14.5837L14.5836 16.3217L9.75606 11.4944C9.5934 11.3318 9.38008 11.2504 9.16675 11.2504C8.95341 11.2504 8.74011 11.3318 8.57744 11.4944L3.7499 16.3217L2.01194 14.5837L6.83942 9.75618Z" fill="#fff"/>
<path d="M26.8392 11.4942C26.5139 11.1686 25.9859 11.1686 25.6608 11.4942L14.9999 22.1549L9.75568 16.9109C9.43037 16.5853 8.90237 16.5853 8.57728 16.9109L5.66059 19.8276C5.33495 20.1529 5.33495 20.6806 5.66059 21.006L14.4107 29.7561C14.5731 29.919 14.7864 30.0003 14.9997 30.0003C15.2131 30.0003 15.4264 29.919 15.589 29.7563L29.7558 15.5895C30.0815 15.2642 30.0815 14.7366 29.7558 14.4111L26.8392 11.4942ZM14.9999 27.9882L7.4285 20.4168L9.16645 18.6788L14.4107 23.923C14.736 24.2487 15.264 24.2487 15.589 23.923L26.25 13.2621L27.9879 15.0001L14.9999 27.9882Z" fill="#fff"/>
</svg>
