<svg width="32" height="32" viewBox="0 0 32 32" fill="none" xmlns="http://www.w3.org/2000/svg">
<mask id="path-1-outside-1_821_2305" maskUnits="userSpaceOnUse" x="-1" y="-1" width="34" height="34" fill="black">
<rect fill="white" x="-1" y="-1" width="34" height="34"/>
<path d="M9.60032 7.68009H7.68034V9.60007C7.68034 9.82873 7.55834 10.0399 7.36034 10.1543C7.16234 10.2686 6.91835 10.2686 6.72035 10.1543C6.52235 10.0399 6.40035 9.82872 6.40035 9.60007V7.68009H4.48037C4.25171 7.68009 4.0405 7.55809 3.92612 7.3601C3.81186 7.1621 3.81186 6.91811 3.92612 6.7201C4.04052 6.5221 4.25172 6.40011 4.48037 6.40011H6.40035V4.48013C6.40035 4.25146 6.52235 4.04026 6.72035 3.92588C6.91835 3.81161 7.16234 3.81161 7.36034 3.92588C7.55834 4.04028 7.68034 4.25147 7.68034 4.48013V6.40011H9.60032C9.82898 6.40011 10.0402 6.5221 10.1546 6.7201C10.2688 6.9181 10.2688 7.16209 10.1546 7.3601C10.0402 7.55809 9.82897 7.68009 9.60032 7.68009ZM9.41285 22.5873C9.29272 22.4675 9.13005 22.4 8.96032 22.4C8.79058 22.4 8.62792 22.4675 8.50778 22.5873L7.04034 24.0549L5.57289 22.5875V22.5873C5.41023 22.4304 5.17702 22.3708 4.95905 22.4305C4.74105 22.4903 4.57079 22.6605 4.51105 22.8785C4.45132 23.0965 4.51092 23.3297 4.66785 23.4924L6.13543 24.9598L4.66799 26.4273H4.66786C4.54439 26.5466 4.47399 26.7104 4.47252 26.882C4.47106 27.0538 4.53866 27.2188 4.65999 27.3402C4.78132 27.4615 4.94638 27.5291 5.11812 27.5276C5.28972 27.5262 5.45358 27.4558 5.57291 27.3323L7.04035 25.8647L8.5078 27.3322V27.3323C8.67046 27.4892 8.90367 27.5488 9.12164 27.4891C9.33964 27.4294 9.5099 27.2591 9.56964 27.0411C9.62937 26.8231 9.56977 26.5899 9.41284 26.4273L7.94526 24.9598L9.4127 23.4924H9.41284C9.5327 23.3722 9.60017 23.2096 9.60017 23.0398C9.60017 22.8701 9.53272 22.7075 9.41285 22.5873ZM28.16 7.0401C28.16 6.87037 28.0926 6.70757 27.9726 6.58756C27.8526 6.46757 27.6898 6.4001 27.52 6.4001H22.4001C22.1714 6.4001 21.9602 6.5221 21.8458 6.7201C21.7316 6.91809 21.7316 7.16208 21.8458 7.36009C21.9602 7.55809 22.1714 7.68008 22.4001 7.68008H27.52C27.6898 7.68008 27.8526 7.61262 27.9726 7.49262C28.0926 7.37262 28.16 7.20984 28.16 7.0401ZM21.7601 24.9599C21.7601 25.1296 21.8276 25.2924 21.9476 25.4124C22.0676 25.5324 22.2304 25.5999 22.4001 25.5999H27.52C27.7487 25.5999 27.9599 25.4779 28.0743 25.2799C28.1886 25.0819 28.1886 24.8379 28.0743 24.6399C27.9599 24.4419 27.7487 24.3199 27.52 24.3199H22.4001C22.2304 24.3199 22.0676 24.3874 21.9476 24.5074C21.8276 24.6274 21.7601 24.7902 21.7601 24.9599ZM18.5601 14.08H13.4402C13.2115 14.08 13.0003 14.202 12.8859 14.4C12.7717 14.598 12.7717 14.842 12.8859 15.04C13.0003 15.238 13.2115 15.36 13.4402 15.36H18.5601C18.7888 15.36 19 15.238 19.1144 15.04C19.2287 14.842 19.2287 14.598 19.1144 14.4C19 14.202 18.7888 14.08 18.5601 14.08ZM18.5601 16.64H13.4402C13.2115 16.64 13.0003 16.762 12.8859 16.96C12.7717 17.158 12.7717 17.402 12.8859 17.6C13.0003 17.798 13.2115 17.92 13.4402 17.92H18.5601C18.7888 17.92 19 17.798 19.1144 17.6C19.2287 17.402 19.2287 17.158 19.1144 16.96C19 16.762 18.7888 16.64 18.5601 16.64ZM23.0401 14.08V17.92H31.36C31.5297 17.92 31.6925 17.9874 31.8125 18.1074C31.9325 18.2274 32 18.3902 32 18.56V27.84C31.9987 28.9429 31.5599 30.0003 30.7802 30.7802C30.0003 31.5599 28.943 31.9987 27.84 32H18.56C18.3902 32 18.2274 31.9325 18.1074 31.8125C17.9874 31.6925 17.92 31.5297 17.92 31.36V23.0401H14.08V31.36C14.08 31.5297 14.0126 31.6925 13.8926 31.8125C13.7726 31.9325 13.6098 32 13.44 32H4.15995C3.05705 31.9987 1.99971 31.5599 1.21984 30.7802C0.440111 30.0003 0.00133119 28.943 0 27.84V18.56C0 18.3902 0.0674673 18.2274 0.187465 18.1074C0.307463 17.9874 0.470263 17.92 0.64 17.92H8.95991V14.08H0.64C0.470267 14.08 0.30747 14.0126 0.187465 13.8926C0.0674673 13.7726 0 13.6098 0 13.44V4.15995C0.0013333 3.05705 0.440145 1.99971 1.21984 1.21984C1.99971 0.440111 3.05702 0.00133119 4.15995 0H13.44C13.6098 0 13.7726 0.0674673 13.8926 0.187465C14.0126 0.307463 14.08 0.470263 14.08 0.64V8.95991H17.92V0.64C17.92 0.470267 17.9874 0.30747 18.1074 0.187465C18.2274 0.0674673 18.3902 0 18.56 0H27.84C28.9429 0.0013333 30.0003 0.440145 30.7802 1.21984C31.5599 1.99971 31.9987 3.05702 32 4.15995V13.44C32 13.6098 31.9325 13.7726 31.8125 13.8926C31.6925 14.0126 31.5297 14.08 31.36 14.08H23.0401ZM8.96025 12.8V11.52C8.96025 10.8411 9.22998 10.1899 9.71011 9.70994C10.1901 9.22983 10.8413 8.96008 11.5202 8.96008H12.8002V1.28016H4.16047C3.39688 1.28096 2.6649 1.58469 2.12502 2.12468C1.58504 2.66453 1.28129 3.39654 1.28051 4.16013V12.7999L8.96025 12.8ZM12.8002 23.0399H11.5202C10.8413 23.0399 10.1901 22.7702 9.71011 22.2901C9.23 21.8101 8.96025 21.1589 8.96025 20.4799V19.2H1.28033V27.8397C1.28113 28.6033 1.58487 29.3353 2.12485 29.8751C2.6647 30.4151 3.39671 30.7189 4.1603 30.7197H12.8L12.8002 23.0399ZM20.4801 21.7599C20.8196 21.7599 21.1452 21.6251 21.3852 21.385C21.6253 21.145 21.7601 20.8194 21.7601 20.4799V11.52C21.7601 11.1806 21.6253 10.855 21.3852 10.615C21.1452 10.3748 20.8196 10.2401 20.4801 10.2401H11.5202C11.1808 10.2401 10.8552 10.3749 10.6152 10.615C10.375 10.855 10.2402 11.1806 10.2402 11.52V20.4799C10.2402 20.8194 10.375 21.145 10.6152 21.385C10.8551 21.6252 11.1807 21.7599 11.5202 21.7599H20.4801ZM23.0401 19.2V20.4799C23.0401 21.1589 22.7704 21.8101 22.2902 22.2901C21.8102 22.7702 21.159 23.0399 20.4801 23.0399H19.2001V30.7198H27.8399C28.6035 30.719 29.3354 30.4153 29.8753 29.8753C30.4153 29.3355 30.719 28.6035 30.7198 27.8399V19.2001L23.0401 19.2ZM23.0401 11.52V12.8H30.72V4.1603C30.7192 3.39671 30.4155 2.66473 29.8755 2.12485C29.3356 1.58487 28.6036 1.28112 27.84 1.28033H19.2003V8.96025H20.4803C21.1592 8.96025 21.8104 9.22998 22.2904 9.71011C22.7705 10.1901 23.0403 10.8413 23.0403 11.5202L23.0401 11.52ZM24.9601 23.6799C25.2995 23.6799 25.6251 23.5451 25.8651 23.305C26.1053 23.065 26.2401 22.7394 26.2401 22.3999C26.2401 22.0604 26.1053 21.7349 25.8651 21.4949C25.6251 21.2547 25.2996 21.1199 24.9601 21.1199C24.6206 21.1199 24.295 21.2547 24.055 21.4949C23.8149 21.7349 23.6801 22.0604 23.6801 22.3999C23.6801 22.7394 23.8149 23.065 24.055 23.305C24.295 23.5451 24.6206 23.6799 24.9601 23.6799ZM24.9601 26.2399C24.6206 26.2399 24.295 26.3747 24.055 26.6148C23.8149 26.8548 23.6801 27.1804 23.6801 27.5199C23.6801 27.8594 23.8149 28.1849 24.055 28.4249C24.295 28.6651 24.6206 28.7999 24.9601 28.7999C25.2996 28.7999 25.6251 28.6651 25.8651 28.4249C26.1053 28.1849 26.2401 27.8594 26.2401 27.5199C26.2401 27.1804 26.1053 26.8548 25.8651 26.6148C25.6251 26.3747 25.2996 26.2399 24.9601 26.2399Z"/>
</mask>
<path d="M9.60032 7.68009H7.68034V9.60007C7.68034 9.82873 7.55834 10.0399 7.36034 10.1543C7.16234 10.2686 6.91835 10.2686 6.72035 10.1543C6.52235 10.0399 6.40035 9.82872 6.40035 9.60007V7.68009H4.48037C4.25171 7.68009 4.0405 7.55809 3.92612 7.3601C3.81186 7.1621 3.81186 6.91811 3.92612 6.7201C4.04052 6.5221 4.25172 6.40011 4.48037 6.40011H6.40035V4.48013C6.40035 4.25146 6.52235 4.04026 6.72035 3.92588C6.91835 3.81161 7.16234 3.81161 7.36034 3.92588C7.55834 4.04028 7.68034 4.25147 7.68034 4.48013V6.40011H9.60032C9.82898 6.40011 10.0402 6.5221 10.1546 6.7201C10.2688 6.9181 10.2688 7.16209 10.1546 7.3601C10.0402 7.55809 9.82897 7.68009 9.60032 7.68009ZM9.41285 22.5873C9.29272 22.4675 9.13005 22.4 8.96032 22.4C8.79058 22.4 8.62792 22.4675 8.50778 22.5873L7.04034 24.0549L5.57289 22.5875V22.5873C5.41023 22.4304 5.17702 22.3708 4.95905 22.4305C4.74105 22.4903 4.57079 22.6605 4.51105 22.8785C4.45132 23.0965 4.51092 23.3297 4.66785 23.4924L6.13543 24.9598L4.66799 26.4273H4.66786C4.54439 26.5466 4.47399 26.7104 4.47252 26.882C4.47106 27.0538 4.53866 27.2188 4.65999 27.3402C4.78132 27.4615 4.94638 27.5291 5.11812 27.5276C5.28972 27.5262 5.45358 27.4558 5.57291 27.3323L7.04035 25.8647L8.5078 27.3322V27.3323C8.67046 27.4892 8.90367 27.5488 9.12164 27.4891C9.33964 27.4294 9.5099 27.2591 9.56964 27.0411C9.62937 26.8231 9.56977 26.5899 9.41284 26.4273L7.94526 24.9598L9.4127 23.4924H9.41284C9.5327 23.3722 9.60017 23.2096 9.60017 23.0398C9.60017 22.8701 9.53272 22.7075 9.41285 22.5873ZM28.16 7.0401C28.16 6.87037 28.0926 6.70757 27.9726 6.58756C27.8526 6.46757 27.6898 6.4001 27.52 6.4001H22.4001C22.1714 6.4001 21.9602 6.5221 21.8458 6.7201C21.7316 6.91809 21.7316 7.16208 21.8458 7.36009C21.9602 7.55809 22.1714 7.68008 22.4001 7.68008H27.52C27.6898 7.68008 27.8526 7.61262 27.9726 7.49262C28.0926 7.37262 28.16 7.20984 28.16 7.0401ZM21.7601 24.9599C21.7601 25.1296 21.8276 25.2924 21.9476 25.4124C22.0676 25.5324 22.2304 25.5999 22.4001 25.5999H27.52C27.7487 25.5999 27.9599 25.4779 28.0743 25.2799C28.1886 25.0819 28.1886 24.8379 28.0743 24.6399C27.9599 24.4419 27.7487 24.3199 27.52 24.3199H22.4001C22.2304 24.3199 22.0676 24.3874 21.9476 24.5074C21.8276 24.6274 21.7601 24.7902 21.7601 24.9599ZM18.5601 14.08H13.4402C13.2115 14.08 13.0003 14.202 12.8859 14.4C12.7717 14.598 12.7717 14.842 12.8859 15.04C13.0003 15.238 13.2115 15.36 13.4402 15.36H18.5601C18.7888 15.36 19 15.238 19.1144 15.04C19.2287 14.842 19.2287 14.598 19.1144 14.4C19 14.202 18.7888 14.08 18.5601 14.08ZM18.5601 16.64H13.4402C13.2115 16.64 13.0003 16.762 12.8859 16.96C12.7717 17.158 12.7717 17.402 12.8859 17.6C13.0003 17.798 13.2115 17.92 13.4402 17.92H18.5601C18.7888 17.92 19 17.798 19.1144 17.6C19.2287 17.402 19.2287 17.158 19.1144 16.96C19 16.762 18.7888 16.64 18.5601 16.64ZM23.0401 14.08V17.92H31.36C31.5297 17.92 31.6925 17.9874 31.8125 18.1074C31.9325 18.2274 32 18.3902 32 18.56V27.84C31.9987 28.9429 31.5599 30.0003 30.7802 30.7802C30.0003 31.5599 28.943 31.9987 27.84 32H18.56C18.3902 32 18.2274 31.9325 18.1074 31.8125C17.9874 31.6925 17.92 31.5297 17.92 31.36V23.0401H14.08V31.36C14.08 31.5297 14.0126 31.6925 13.8926 31.8125C13.7726 31.9325 13.6098 32 13.44 32H4.15995C3.05705 31.9987 1.99971 31.5599 1.21984 30.7802C0.440111 30.0003 0.00133119 28.943 0 27.84V18.56C0 18.3902 0.0674673 18.2274 0.187465 18.1074C0.307463 17.9874 0.470263 17.92 0.64 17.92H8.95991V14.08H0.64C0.470267 14.08 0.30747 14.0126 0.187465 13.8926C0.0674673 13.7726 0 13.6098 0 13.44V4.15995C0.0013333 3.05705 0.440145 1.99971 1.21984 1.21984C1.99971 0.440111 3.05702 0.00133119 4.15995 0H13.44C13.6098 0 13.7726 0.0674673 13.8926 0.187465C14.0126 0.307463 14.08 0.470263 14.08 0.64V8.95991H17.92V0.64C17.92 0.470267 17.9874 0.30747 18.1074 0.187465C18.2274 0.0674673 18.3902 0 18.56 0H27.84C28.9429 0.0013333 30.0003 0.440145 30.7802 1.21984C31.5599 1.99971 31.9987 3.05702 32 4.15995V13.44C32 13.6098 31.9325 13.7726 31.8125 13.8926C31.6925 14.0126 31.5297 14.08 31.36 14.08H23.0401ZM8.96025 12.8V11.52C8.96025 10.8411 9.22998 10.1899 9.71011 9.70994C10.1901 9.22983 10.8413 8.96008 11.5202 8.96008H12.8002V1.28016H4.16047C3.39688 1.28096 2.6649 1.58469 2.12502 2.12468C1.58504 2.66453 1.28129 3.39654 1.28051 4.16013V12.7999L8.96025 12.8ZM12.8002 23.0399H11.5202C10.8413 23.0399 10.1901 22.7702 9.71011 22.2901C9.23 21.8101 8.96025 21.1589 8.96025 20.4799V19.2H1.28033V27.8397C1.28113 28.6033 1.58487 29.3353 2.12485 29.8751C2.6647 30.4151 3.39671 30.7189 4.1603 30.7197H12.8L12.8002 23.0399ZM20.4801 21.7599C20.8196 21.7599 21.1452 21.6251 21.3852 21.385C21.6253 21.145 21.7601 20.8194 21.7601 20.4799V11.52C21.7601 11.1806 21.6253 10.855 21.3852 10.615C21.1452 10.3748 20.8196 10.2401 20.4801 10.2401H11.5202C11.1808 10.2401 10.8552 10.3749 10.6152 10.615C10.375 10.855 10.2402 11.1806 10.2402 11.52V20.4799C10.2402 20.8194 10.375 21.145 10.6152 21.385C10.8551 21.6252 11.1807 21.7599 11.5202 21.7599H20.4801ZM23.0401 19.2V20.4799C23.0401 21.1589 22.7704 21.8101 22.2902 22.2901C21.8102 22.7702 21.159 23.0399 20.4801 23.0399H19.2001V30.7198H27.8399C28.6035 30.719 29.3354 30.4153 29.8753 29.8753C30.4153 29.3355 30.719 28.6035 30.7198 27.8399V19.2001L23.0401 19.2ZM23.0401 11.52V12.8H30.72V4.1603C30.7192 3.39671 30.4155 2.66473 29.8755 2.12485C29.3356 1.58487 28.6036 1.28112 27.84 1.28033H19.2003V8.96025H20.4803C21.1592 8.96025 21.8104 9.22998 22.2904 9.71011C22.7705 10.1901 23.0403 10.8413 23.0403 11.5202L23.0401 11.52ZM24.9601 23.6799C25.2995 23.6799 25.6251 23.5451 25.8651 23.305C26.1053 23.065 26.2401 22.7394 26.2401 22.3999C26.2401 22.0604 26.1053 21.7349 25.8651 21.4949C25.6251 21.2547 25.2996 21.1199 24.9601 21.1199C24.6206 21.1199 24.295 21.2547 24.055 21.4949C23.8149 21.7349 23.6801 22.0604 23.6801 22.3999C23.6801 22.7394 23.8149 23.065 24.055 23.305C24.295 23.5451 24.6206 23.6799 24.9601 23.6799ZM24.9601 26.2399C24.6206 26.2399 24.295 26.3747 24.055 26.6148C23.8149 26.8548 23.6801 27.1804 23.6801 27.5199C23.6801 27.8594 23.8149 28.1849 24.055 28.4249C24.295 28.6651 24.6206 28.7999 24.9601 28.7999C25.2996 28.7999 25.6251 28.6651 25.8651 28.4249C26.1053 28.1849 26.2401 27.8594 26.2401 27.5199C26.2401 27.1804 26.1053 26.8548 25.8651 26.6148C25.6251 26.3747 25.2996 26.2399 24.9601 26.2399Z" fill="#BBBBBB"/>
<path d="M9.60032 7.68009H7.68034V9.60007C7.68034 9.82873 7.55834 10.0399 7.36034 10.1543C7.16234 10.2686 6.91835 10.2686 6.72035 10.1543C6.52235 10.0399 6.40035 9.82872 6.40035 9.60007V7.68009H4.48037C4.25171 7.68009 4.0405 7.55809 3.92612 7.3601C3.81186 7.1621 3.81186 6.91811 3.92612 6.7201C4.04052 6.5221 4.25172 6.40011 4.48037 6.40011H6.40035V4.48013C6.40035 4.25146 6.52235 4.04026 6.72035 3.92588C6.91835 3.81161 7.16234 3.81161 7.36034 3.92588C7.55834 4.04028 7.68034 4.25147 7.68034 4.48013V6.40011H9.60032C9.82898 6.40011 10.0402 6.5221 10.1546 6.7201C10.2688 6.9181 10.2688 7.16209 10.1546 7.3601C10.0402 7.55809 9.82897 7.68009 9.60032 7.68009ZM9.41285 22.5873C9.29272 22.4675 9.13005 22.4 8.96032 22.4C8.79058 22.4 8.62792 22.4675 8.50778 22.5873L7.04034 24.0549L5.57289 22.5875V22.5873C5.41023 22.4304 5.17702 22.3708 4.95905 22.4305C4.74105 22.4903 4.57079 22.6605 4.51105 22.8785C4.45132 23.0965 4.51092 23.3297 4.66785 23.4924L6.13543 24.9598L4.66799 26.4273H4.66786C4.54439 26.5466 4.47399 26.7104 4.47252 26.882C4.47106 27.0538 4.53866 27.2188 4.65999 27.3402C4.78132 27.4615 4.94638 27.5291 5.11812 27.5276C5.28972 27.5262 5.45358 27.4558 5.57291 27.3323L7.04035 25.8647L8.5078 27.3322V27.3323C8.67046 27.4892 8.90367 27.5488 9.12164 27.4891C9.33964 27.4294 9.5099 27.2591 9.56964 27.0411C9.62937 26.8231 9.56977 26.5899 9.41284 26.4273L7.94526 24.9598L9.4127 23.4924H9.41284C9.5327 23.3722 9.60017 23.2096 9.60017 23.0398C9.60017 22.8701 9.53272 22.7075 9.41285 22.5873ZM28.16 7.0401C28.16 6.87037 28.0926 6.70757 27.9726 6.58756C27.8526 6.46757 27.6898 6.4001 27.52 6.4001H22.4001C22.1714 6.4001 21.9602 6.5221 21.8458 6.7201C21.7316 6.91809 21.7316 7.16208 21.8458 7.36009C21.9602 7.55809 22.1714 7.68008 22.4001 7.68008H27.52C27.6898 7.68008 27.8526 7.61262 27.9726 7.49262C28.0926 7.37262 28.16 7.20984 28.16 7.0401ZM21.7601 24.9599C21.7601 25.1296 21.8276 25.2924 21.9476 25.4124C22.0676 25.5324 22.2304 25.5999 22.4001 25.5999H27.52C27.7487 25.5999 27.9599 25.4779 28.0743 25.2799C28.1886 25.0819 28.1886 24.8379 28.0743 24.6399C27.9599 24.4419 27.7487 24.3199 27.52 24.3199H22.4001C22.2304 24.3199 22.0676 24.3874 21.9476 24.5074C21.8276 24.6274 21.7601 24.7902 21.7601 24.9599ZM18.5601 14.08H13.4402C13.2115 14.08 13.0003 14.202 12.8859 14.4C12.7717 14.598 12.7717 14.842 12.8859 15.04C13.0003 15.238 13.2115 15.36 13.4402 15.36H18.5601C18.7888 15.36 19 15.238 19.1144 15.04C19.2287 14.842 19.2287 14.598 19.1144 14.4C19 14.202 18.7888 14.08 18.5601 14.08ZM18.5601 16.64H13.4402C13.2115 16.64 13.0003 16.762 12.8859 16.96C12.7717 17.158 12.7717 17.402 12.8859 17.6C13.0003 17.798 13.2115 17.92 13.4402 17.92H18.5601C18.7888 17.92 19 17.798 19.1144 17.6C19.2287 17.402 19.2287 17.158 19.1144 16.96C19 16.762 18.7888 16.64 18.5601 16.64ZM23.0401 14.08V17.92H31.36C31.5297 17.92 31.6925 17.9874 31.8125 18.1074C31.9325 18.2274 32 18.3902 32 18.56V27.84C31.9987 28.9429 31.5599 30.0003 30.7802 30.7802C30.0003 31.5599 28.943 31.9987 27.84 32H18.56C18.3902 32 18.2274 31.9325 18.1074 31.8125C17.9874 31.6925 17.92 31.5297 17.92 31.36V23.0401H14.08V31.36C14.08 31.5297 14.0126 31.6925 13.8926 31.8125C13.7726 31.9325 13.6098 32 13.44 32H4.15995C3.05705 31.9987 1.99971 31.5599 1.21984 30.7802C0.440111 30.0003 0.00133119 28.943 0 27.84V18.56C0 18.3902 0.0674673 18.2274 0.187465 18.1074C0.307463 17.9874 0.470263 17.92 0.64 17.92H8.95991V14.08H0.64C0.470267 14.08 0.30747 14.0126 0.187465 13.8926C0.0674673 13.7726 0 13.6098 0 13.44V4.15995C0.0013333 3.05705 0.440145 1.99971 1.21984 1.21984C1.99971 0.440111 3.05702 0.00133119 4.15995 0H13.44C13.6098 0 13.7726 0.0674673 13.8926 0.187465C14.0126 0.307463 14.08 0.470263 14.08 0.64V8.95991H17.92V0.64C17.92 0.470267 17.9874 0.30747 18.1074 0.187465C18.2274 0.0674673 18.3902 0 18.56 0H27.84C28.9429 0.0013333 30.0003 0.440145 30.7802 1.21984C31.5599 1.99971 31.9987 3.05702 32 4.15995V13.44C32 13.6098 31.9325 13.7726 31.8125 13.8926C31.6925 14.0126 31.5297 14.08 31.36 14.08H23.0401ZM8.96025 12.8V11.52C8.96025 10.8411 9.22998 10.1899 9.71011 9.70994C10.1901 9.22983 10.8413 8.96008 11.5202 8.96008H12.8002V1.28016H4.16047C3.39688 1.28096 2.6649 1.58469 2.12502 2.12468C1.58504 2.66453 1.28129 3.39654 1.28051 4.16013V12.7999L8.96025 12.8ZM12.8002 23.0399H11.5202C10.8413 23.0399 10.1901 22.7702 9.71011 22.2901C9.23 21.8101 8.96025 21.1589 8.96025 20.4799V19.2H1.28033V27.8397C1.28113 28.6033 1.58487 29.3353 2.12485 29.8751C2.6647 30.4151 3.39671 30.7189 4.1603 30.7197H12.8L12.8002 23.0399ZM20.4801 21.7599C20.8196 21.7599 21.1452 21.6251 21.3852 21.385C21.6253 21.145 21.7601 20.8194 21.7601 20.4799V11.52C21.7601 11.1806 21.6253 10.855 21.3852 10.615C21.1452 10.3748 20.8196 10.2401 20.4801 10.2401H11.5202C11.1808 10.2401 10.8552 10.3749 10.6152 10.615C10.375 10.855 10.2402 11.1806 10.2402 11.52V20.4799C10.2402 20.8194 10.375 21.145 10.6152 21.385C10.8551 21.6252 11.1807 21.7599 11.5202 21.7599H20.4801ZM23.0401 19.2V20.4799C23.0401 21.1589 22.7704 21.8101 22.2902 22.2901C21.8102 22.7702 21.159 23.0399 20.4801 23.0399H19.2001V30.7198H27.8399C28.6035 30.719 29.3354 30.4153 29.8753 29.8753C30.4153 29.3355 30.719 28.6035 30.7198 27.8399V19.2001L23.0401 19.2ZM23.0401 11.52V12.8H30.72V4.1603C30.7192 3.39671 30.4155 2.66473 29.8755 2.12485C29.3356 1.58487 28.6036 1.28112 27.84 1.28033H19.2003V8.96025H20.4803C21.1592 8.96025 21.8104 9.22998 22.2904 9.71011C22.7705 10.1901 23.0403 10.8413 23.0403 11.5202L23.0401 11.52ZM24.9601 23.6799C25.2995 23.6799 25.6251 23.5451 25.8651 23.305C26.1053 23.065 26.2401 22.7394 26.2401 22.3999C26.2401 22.0604 26.1053 21.7349 25.8651 21.4949C25.6251 21.2547 25.2996 21.1199 24.9601 21.1199C24.6206 21.1199 24.295 21.2547 24.055 21.4949C23.8149 21.7349 23.6801 22.0604 23.6801 22.3999C23.6801 22.7394 23.8149 23.065 24.055 23.305C24.295 23.5451 24.6206 23.6799 24.9601 23.6799ZM24.9601 26.2399C24.6206 26.2399 24.295 26.3747 24.055 26.6148C23.8149 26.8548 23.6801 27.1804 23.6801 27.5199C23.6801 27.8594 23.8149 28.1849 24.055 28.4249C24.295 28.6651 24.6206 28.7999 24.9601 28.7999C25.2996 28.7999 25.6251 28.6651 25.8651 28.4249C26.1053 28.1849 26.2401 27.8594 26.2401 27.5199C26.2401 27.1804 26.1053 26.8548 25.8651 26.6148C25.6251 26.3747 25.2996 26.2399 24.9601 26.2399Z" stroke="#BBBBBB" stroke-width="0.4" mask="url(#path-1-outside-1_821_2305)"/>
</svg>
