<svg width="48" height="48" viewBox="0 0 48 48" fill="none" xmlns="http://www.w3.org/2000/svg">
<circle cx="24" cy="24" r="24" fill="#FF903A"/>
<path fill-rule="evenodd" clip-rule="evenodd" d="M29.2038 22.7959L30.9998 20.9999C31.5451 20.4547 31.8177 20.1821 31.9634 19.888C32.2407 19.3284 32.2407 18.6715 31.9634 18.1119C31.8177 17.8178 31.5451 17.5452 30.9998 16.9999C30.4546 16.4547 30.1819 16.1821 29.8878 16.0363C29.3283 15.759 28.6713 15.759 28.1118 16.0363C27.8177 16.1821 27.5451 16.4547 26.9998 16.9999L25.1812 18.8186C26.145 20.4692 27.5312 21.8448 29.2038 22.7959ZM23.7267 20.2731L16.8562 27.1435C16.4311 27.5686 16.2186 27.7811 16.0788 28.0422C15.9391 28.3033 15.8801 28.598 15.7623 29.1875L15.1469 32.2645C15.0803 32.5971 15.0471 32.7634 15.1417 32.858C15.2363 32.9526 15.4026 32.9193 15.7352 32.8528L18.8122 32.2374C19.4016 32.1195 19.6964 32.0606 19.9575 31.9208C20.2186 31.7811 20.4311 31.5686 20.8562 31.1435L27.7456 24.2541C26.1239 23.2385 24.7522 21.8762 23.7267 20.2731Z" fill="white"/>
</svg>
