<svg width="22" height="22" viewBox="0 0 22 22" fill="none" xmlns="http://www.w3.org/2000/svg">
<g clip-path="url(#clip0_2487_5632)">
<path d="M11.5146 5.14641C12.9358 5.14641 14.0878 3.99435 14.0878 2.57321C14.0878 1.15206 12.9358 0 11.5146 0C10.0935 0 8.94141 1.15206 8.94141 2.57321C8.94141 3.99435 10.0935 5.14641 11.5146 5.14641Z" fill="#FF7A01"/>
<path opacity="0.6" d="M11.5164 22.0001C12.369 22.0001 13.0602 21.3089 13.0602 20.4564C13.0602 19.6038 12.369 18.9126 11.5164 18.9126C10.6638 18.9126 9.97266 19.6038 9.97266 20.4564C9.97266 21.3089 10.6638 22.0001 11.5164 22.0001Z" fill="#FF7A01"/>
<path opacity="0.9" d="M5.19105 7.50759C6.47017 7.50759 7.50711 6.47066 7.50711 5.19154C7.50711 3.91242 6.47017 2.87549 5.19105 2.87549C3.91193 2.87549 2.875 3.91242 2.875 5.19154C2.875 6.47066 3.91193 7.50759 5.19105 7.50759Z" fill="#FF7A01"/>
<path opacity="0.5" d="M17.8374 19.1228C18.548 19.1228 19.124 18.5467 19.124 17.8362C19.124 17.1256 18.548 16.5496 17.8374 16.5496C17.1268 16.5496 16.5508 17.1256 16.5508 17.8362C16.5508 18.5467 17.1268 19.1228 17.8374 19.1228Z" fill="#FF7A01"/>
<path opacity="0.8" d="M2.57369 13.5732C3.71033 13.5732 4.63175 12.6517 4.63175 11.5151C4.63175 10.3785 3.71033 9.45703 2.57369 9.45703C1.43705 9.45703 0.515625 10.3785 0.515625 11.5151C0.515625 12.6517 1.43705 13.5732 2.57369 13.5732Z" fill="#FF7A01"/>
<path opacity="0.4" d="M20.4583 12.5428C21.0264 12.5428 21.4869 12.0823 21.4869 11.5142C21.4869 10.9461 21.0264 10.4856 20.4583 10.4856C19.8902 10.4856 19.4297 10.9461 19.4297 11.5142C19.4297 12.0823 19.8902 12.5428 20.4583 12.5428Z" fill="#FF7A01"/>
<path opacity="0.7" d="M3.9185 16.5647C3.21467 17.2685 3.21467 18.4074 3.9185 19.1112C4.6215 19.815 5.76199 19.815 6.46499 19.1112C7.16882 18.4074 7.16882 17.2685 6.46499 16.5647C5.76199 15.86 4.62233 15.8534 3.9185 16.5647Z" fill="#FF7A01"/>
<path opacity="0.3" d="M17.8379 5.96284C18.2639 5.96284 18.6093 5.61745 18.6093 5.19138C18.6093 4.76532 18.2639 4.41992 17.8379 4.41992C17.4118 4.41992 17.0664 4.76532 17.0664 5.19138C17.0664 5.61745 17.4118 5.96284 17.8379 5.96284Z" fill="#FF7A01"/>
</g>
<defs>
<clipPath id="clip0_2487_5632">
<rect width="22" height="22" fill="white"/>
</clipPath>
</defs>
</svg>
