<svg width="10" height="10" viewBox="0 0 10 10" fill="none" xmlns="http://www.w3.org/2000/svg">
<path fill-rule="evenodd" clip-rule="evenodd" d="M5 10C2.64298 10 1.46446 10 0.732235 9.26775C-5.96046e-08 8.53555 0 7.357 0 5C0 2.64298 -5.96046e-08 1.46446 0.732235 0.732235C1.46446 -5.96046e-08 2.64298 0 5 0C7.357 0 8.53555 -5.96046e-08 9.26775 0.732235C10 1.46446 10 2.64298 10 5C10 7.357 10 8.53555 9.26775 9.26775C8.53555 10 7.357 10 5 10ZM5 7.875C5.2071 7.875 5.375 7.7071 5.375 7.5V4.5C5.375 4.2929 5.2071 4.125 5 4.125C4.7929 4.125 4.625 4.2929 4.625 4.5V7.5C4.625 7.7071 4.7929 7.875 5 7.875ZM5 2.5C5.27615 2.5 5.5 2.72386 5.5 3C5.5 3.27614 5.27615 3.5 5 3.5C4.72385 3.5 4.5 3.27614 4.5 3C4.5 2.72386 4.72385 2.5 5 2.5Z" fill="white"/>
</svg>
