<svg width="22" height="21" viewBox="0 0 22 21" fill="none" xmlns="http://www.w3.org/2000/svg">
<path d="M6.06325 12.5861L6.52508 11.9504L6.06325 12.5861C6.07345 12.5935 6.07772 12.6066 6.07382 12.6186L4.56204 17.2714C4.08292 18.746 5.77064 19.9722 7.025 19.0608L10.9829 16.1852C10.9931 16.1778 11.0069 16.1778 11.0171 16.1852L14.975 19.0608C16.2294 19.9722 17.9171 18.746 17.438 17.2714L15.9262 12.6186C15.9223 12.6066 15.9266 12.5935 15.9368 12.5861L19.8946 9.71048C21.149 8.79914 20.5044 6.8151 18.9539 6.8151H14.0617C14.049 6.8151 14.0379 6.80698 14.034 6.79499L12.5222 2.14221C12.0431 0.667625 9.95693 0.667615 9.47781 2.1422L7.96603 6.79499C7.96213 6.80698 7.95095 6.8151 7.93835 6.8151H3.04612C1.49565 6.8151 0.850993 8.79914 2.10535 9.71048L6.06325 12.5861Z" fill="#FFCD4C" stroke="#FFA000" stroke-width="1.57143"/>
</svg>
