<svg width="28" height="26" viewBox="0 0 28 26" fill="none" xmlns="http://www.w3.org/2000/svg">
<path d="M20.2697 16.06L19.3186 16.3691L20.2697 16.06C20.2647 16.0448 20.2702 16.0281 20.2831 16.0186L25.3205 12.3588C26.9169 11.1989 26.0965 8.67376 24.1231 8.67376H17.8966C17.8806 8.67376 17.8664 8.66343 17.8614 8.64817L15.9373 2.72644C15.3275 0.849701 12.6725 0.849696 12.0627 2.72644L10.1386 8.64817C10.1336 8.66343 10.1194 8.67376 10.1034 8.67376H3.87688C1.90355 8.67376 1.08308 11.1989 2.67954 12.3588L7.71686 16.0186C7.72984 16.0281 7.73527 16.0448 7.73032 16.06L5.80623 21.9818C5.19644 23.8585 7.34445 25.4191 8.94091 24.2592L13.9782 20.5994C13.9912 20.59 14.0088 20.59 14.0218 20.5994L19.0591 24.2592C20.6555 25.4191 22.8036 23.8585 22.1938 21.9818L20.2697 16.06Z" fill="#FFCD4C" stroke="#FFA000" stroke-width="2"/>
</svg>
