<svg width="786" height="553" viewBox="0 0 786 553" fill="none" xmlns="http://www.w3.org/2000/svg">
<path fill-rule="evenodd" clip-rule="evenodd" d="M731.373 434.376L726.084 396.745L688.454 402.033L693.743 439.664L731.373 434.376ZM733.353 434.097L728.065 396.467L779.562 389.229L779.284 387.249L727.786 394.486L722.498 356.856L773.995 349.619L773.717 347.638L722.219 354.876L716.931 317.245L768.428 310.007L768.15 308.027L716.652 315.264L711.364 277.636L762.861 270.398L762.583 268.418L711.086 275.655L705.797 238.024L757.294 230.787L757.016 228.806L705.519 236.044L700.23 198.414L751.727 191.176L751.449 189.196L699.952 196.433L694.663 158.803L746.16 151.566L745.882 149.585L694.385 156.823L689.096 119.192L740.594 111.955L740.315 109.974L688.818 117.212L683.529 79.5818L735.027 72.3444L734.748 70.3638L683.251 77.6013L677.962 39.9705L729.46 32.733L729.181 30.7525L677.684 37.99L672.395 0.359198L723.893 -6.8783L723.615 -8.85883L672.117 -1.62134L666.829 -39.2511L718.326 -46.4886L718.048 -48.4692L666.55 -41.2317L661.262 -78.8615L712.759 -86.099L712.481 -88.0795L660.983 -80.842L655.695 -118.473L707.192 -125.71L706.913 -127.691L655.416 -120.453L650.128 -158.083L701.625 -165.321L701.346 -167.301L649.849 -160.064L642.612 -211.559L640.632 -211.28L647.869 -159.785L610.239 -154.497L603.002 -205.991L601.021 -205.713L608.258 -154.219L570.63 -148.93L563.393 -200.425L561.412 -200.146L568.65 -148.652L531.02 -143.363L523.783 -194.857L521.802 -194.579L529.039 -143.085L491.408 -137.796L484.171 -189.291L482.191 -189.013L489.428 -137.518L451.798 -132.229L444.561 -183.724L442.58 -183.445L449.817 -131.951L412.187 -126.663L404.95 -178.156L402.97 -177.878L410.207 -126.384L372.576 -121.096L365.339 -172.59L363.359 -172.312L370.596 -120.817L332.965 -115.529L325.728 -167.022L323.748 -166.744L330.985 -115.25L293.355 -109.962L286.118 -161.456L284.138 -161.178L291.375 -109.683L253.746 -104.395L246.509 -155.889L244.528 -155.61L251.765 -104.117L214.135 -98.8281L206.898 -150.322L204.917 -150.044L212.154 -98.5497L174.524 -93.2611L167.287 -144.755L165.307 -144.477L172.543 -92.9828L134.913 -87.6942L127.676 -139.188L125.696 -138.91L132.933 -87.4159L95.3024 -82.1273L88.0654 -133.621L86.0848 -133.343L93.3218 -81.8489L55.6921 -76.5604L48.455 -128.055L46.4745 -127.776L53.7115 -76.2821L0.236671 -68.7667L0.515018 -66.7861L53.9899 -74.3015L59.2784 -36.6717L5.80357 -29.1563L6.08191 -27.1758L59.5568 -34.6912L64.8454 2.93968L11.3709 10.455L11.6493 12.4356L65.1238 4.92021L70.4123 42.55L16.9378 50.0654L17.2162 52.0459L70.6906 44.5306L75.9792 82.1604L22.5047 89.6757L22.7831 91.6563L76.2575 84.1409L81.5462 121.772L28.0716 129.287L28.35 131.268L81.8245 123.752L87.1132 161.383L33.6385 168.898L33.9169 170.879L87.3915 163.364L92.68 200.993L39.2054 208.509L39.4838 210.489L92.9584 202.974L98.247 240.605L44.7723 248.12L45.0507 250.101L98.5254 242.585L103.814 280.215L50.3392 287.73L50.6176 289.711L104.092 282.196L109.381 319.825L55.9061 327.341L56.1845 329.321L109.659 321.806L114.948 359.437L61.473 366.952L61.7513 368.933L115.226 361.417L120.515 399.046L67.0399 406.561L67.3182 408.542L120.793 401.027L126.082 438.657L72.6068 446.173L72.8851 448.153L126.36 440.638L131.648 478.268L78.1737 485.783L78.452 487.764L131.927 480.248L137.215 517.879L83.7406 525.394L84.0189 527.375L137.494 519.86L145.009 573.333L146.99 573.055L139.474 519.581L177.104 514.293L184.619 567.767L186.6 567.489L179.085 514.014L216.715 508.726L224.23 562.2L226.211 561.921L218.695 508.447L256.326 503.159L263.841 556.633L265.822 556.355L258.306 502.881L295.937 497.592L303.452 551.066L305.432 550.788L297.917 497.314L335.547 492.025L343.063 545.499L345.043 545.221L337.528 491.747L375.157 486.458L382.672 539.932L384.653 539.654L377.137 486.18L414.767 480.891L422.282 534.366L424.263 534.087L416.748 480.613L454.378 475.324L461.893 528.798L463.874 528.52L456.359 475.046L493.989 469.758L501.504 523.232L503.485 522.954L495.969 469.479L533.6 464.191L541.115 517.665L543.096 517.386L535.58 463.912L573.21 458.624L580.725 512.097L582.706 511.819L575.191 458.345L612.821 453.057L620.337 506.531L622.317 506.252L614.802 452.778L652.432 447.49L659.947 500.963L661.927 500.685L654.412 447.211L692.041 441.923L699.556 495.397L701.536 495.119L694.021 441.645L731.651 436.356L739.166 489.829L741.147 489.551L733.632 436.078L785.129 428.84L784.85 426.86L733.353 434.097ZM691.762 439.943L686.474 402.312L648.845 407.6L654.134 445.231L691.762 439.943ZM652.153 445.509L646.865 407.878L609.235 413.167L614.524 450.798L652.153 445.509ZM612.543 451.076L607.254 413.445L569.624 418.734L574.912 456.365L612.543 451.076ZM572.932 456.643L567.643 419.012L530.013 424.301L535.302 461.932L572.932 456.643ZM533.321 462.21L528.033 424.579L490.402 429.868L495.691 467.499L533.321 462.21ZM493.71 467.777L488.422 430.146L450.792 435.435L456.08 473.066L493.71 467.777ZM454.1 473.344L448.811 435.713L411.181 441.002L416.469 478.633L454.1 473.344ZM414.489 478.911L409.2 441.28L371.57 446.569L376.859 484.199L414.489 478.911ZM374.878 484.478L369.59 446.847L331.961 452.135L337.25 489.766L374.878 484.478ZM335.269 490.044L329.98 452.414L292.35 457.702L297.639 495.333L335.269 490.044ZM295.658 495.611L290.37 457.981L252.739 463.269L258.028 500.9L295.658 495.611ZM256.047 501.178L250.759 463.548L213.128 468.836L218.417 506.467L256.047 501.178ZM216.437 506.745L211.148 469.114L173.518 474.403L178.806 512.034L216.437 506.745ZM176.826 512.312L171.537 474.681L133.907 479.97L139.196 517.601L176.826 512.312ZM171.259 472.701L133.629 477.989L128.34 440.36L165.97 435.071L171.259 472.701ZM165.692 433.091L128.062 438.379L122.773 400.748L160.403 395.46L165.692 433.091ZM160.125 393.479L122.495 398.768L117.207 361.139L154.836 355.85L160.125 393.479ZM154.558 353.87L116.928 359.158L111.64 321.528L149.269 316.239L154.558 353.87ZM148.991 314.259L111.361 319.547L106.073 281.917L143.703 276.629L148.991 314.259ZM143.424 274.648L105.794 279.937L100.506 242.307L138.136 237.018L143.424 274.648ZM137.857 235.038L100.228 240.326L94.9389 202.696L132.569 197.407L137.857 235.038ZM132.29 195.427L94.6606 200.715L89.3721 163.085L127.002 157.797L132.29 195.427ZM126.723 155.816L89.0937 161.105L83.805 123.474L121.435 118.185L126.723 155.816ZM121.156 116.205L83.5267 121.493L78.238 83.8626L115.868 78.5741L121.156 116.205ZM115.589 76.5935L77.9597 81.882L72.6712 44.2522L110.301 38.9637L115.589 76.5935ZM110.023 36.9832L72.3928 42.2717L67.1043 4.64187L104.734 -0.646651L110.023 36.9832ZM104.456 -2.62719L66.826 2.66133L61.5373 -34.9695L99.167 -40.258L104.456 -2.62719ZM98.8887 -42.2386L61.2589 -36.95L55.9704 -74.5799L93.6002 -79.8684L98.8887 -42.2386ZM675.704 38.2683L670.415 0.637544L632.785 5.92609L638.074 43.5569L675.704 38.2683ZM638.352 45.5374L675.982 40.2489L681.271 77.8796L643.641 83.1682L638.352 45.5374ZM636.093 43.8352L630.804 6.20443L593.176 11.4928L598.465 49.1235L636.093 43.8352ZM598.743 51.1041L636.371 45.8157L641.66 83.4465L604.032 88.7349L598.743 51.1041ZM596.484 49.4019L591.196 11.7711L553.566 17.0596L558.854 54.6904L596.484 49.4019ZM559.133 56.671L596.762 51.3824L602.051 89.0132L564.421 94.3017L559.133 56.671ZM556.874 54.9688L551.585 17.338L513.954 22.6266L519.243 60.2574L556.874 54.9688ZM519.521 62.2379L557.152 56.9493L562.441 94.5801L524.81 99.8687L519.521 62.2379ZM517.263 60.5358L511.974 22.905L474.344 28.1935L479.633 65.8243L517.263 60.5358ZM479.911 67.8048L517.541 62.5163L522.83 100.147L485.2 105.436L479.911 67.8048ZM477.652 66.1026L472.363 28.4719L434.733 33.7605L440.022 71.3912L477.652 66.1026ZM440.3 73.3718L477.93 68.0832L483.219 105.714L445.589 111.003L440.3 73.3718ZM438.041 71.6696L432.753 34.0388L395.122 39.3274L400.411 76.9582L438.041 71.6696ZM400.689 78.9387L438.32 73.6501L443.608 111.281L405.978 116.569L400.689 78.9387ZM398.43 77.2365L393.142 39.6057L355.511 44.8943L360.8 82.5251L398.43 77.2365ZM361.078 84.5057L398.709 79.2171L403.997 116.848L366.367 122.136L361.078 84.5057ZM358.82 82.8035L353.531 45.1727L315.901 50.4612L321.19 88.092L358.82 82.8035ZM321.468 90.0725L359.098 84.784L364.387 122.415L326.757 127.703L321.468 90.0725ZM319.209 88.3703L313.921 50.7396L276.292 56.028L281.58 93.6587L319.209 88.3703ZM281.859 95.6393L319.488 90.3509L324.776 127.982L287.147 133.27L281.859 95.6393ZM279.6 93.9371L274.311 56.3063L236.681 61.5949L241.97 99.2257L279.6 93.9371ZM242.248 101.206L279.878 95.9176L285.167 133.548L247.537 138.837L242.248 101.206ZM239.989 99.504L234.7 61.8732L197.07 67.1618L202.359 104.793L239.989 99.504ZM202.637 106.773L240.267 101.485L245.556 139.115L207.926 144.404L202.637 106.773ZM200.378 105.071L195.089 67.4402L157.459 72.7288L162.748 110.36L200.378 105.071ZM163.026 112.34L200.656 107.051L205.945 144.682L168.315 149.971L163.026 112.34ZM160.767 110.638L155.479 73.0071L117.848 78.2957L123.137 115.926L160.767 110.638ZM123.415 117.907L161.046 112.618L166.334 150.249L128.704 155.538L123.415 117.907ZM567.365 417.032L529.735 422.32L524.446 384.691L562.076 379.402L567.365 417.032ZM561.798 377.421L524.168 382.71L518.879 345.079L556.509 339.791L561.798 377.421ZM522.187 382.988L516.899 345.358L479.268 350.646L484.557 388.277L522.187 382.988ZM556.231 337.81L518.601 343.099L513.313 305.47L550.943 300.181L556.231 337.81ZM516.62 343.377L511.332 305.748L473.702 311.037L478.99 348.666L516.62 343.377ZM550.664 298.201L513.034 303.489L507.746 265.859L545.375 260.57L550.664 298.201ZM511.054 303.768L505.765 266.137L468.135 271.425L473.423 309.056L511.054 303.768ZM545.097 258.589L507.467 263.878L502.179 226.248L539.809 220.96L545.097 258.589ZM505.487 264.156L500.198 226.527L462.568 231.815L467.856 269.445L505.487 264.156ZM539.53 218.979L501.9 224.268L496.612 186.638L534.242 181.349L539.53 218.979ZM499.92 224.546L494.631 186.916L457.001 192.205L462.289 229.835L499.92 224.546ZM533.963 179.369L496.334 184.657L491.045 147.027L528.675 141.738L533.963 179.369ZM494.353 184.936L489.064 147.305L451.434 152.593L456.723 190.224L494.353 184.936ZM528.396 139.757L490.767 145.046L485.478 107.416L523.108 102.128L528.396 139.757ZM488.786 145.324L483.497 107.694L445.867 112.983L451.156 150.613L488.786 145.324ZM511.696 20.9244L474.066 26.213L468.777 -11.4168L506.407 -16.7054L511.696 20.9244ZM472.085 26.4913L466.797 -11.1385L429.166 -5.84988L434.455 31.7799L472.085 26.4913ZM506.129 -18.6859L468.499 -13.3974L463.21 -51.0272L500.84 -56.3157L506.129 -18.6859ZM466.518 -13.119L461.23 -50.7488L423.599 -45.4602L428.888 -7.83042L466.518 -13.119ZM500.562 -58.2963L462.932 -53.0077L457.643 -90.6386L495.273 -95.9271L500.562 -58.2963ZM460.951 -52.7294L455.663 -90.3602L418.032 -85.0716L423.321 -47.4408L460.951 -52.7294ZM494.995 -97.9076L457.365 -92.6191L452.076 -130.249L489.706 -135.537L494.995 -97.9076ZM455.384 -92.3408L450.096 -129.971L412.465 -124.682L417.754 -87.0522L455.384 -92.3408ZM527.754 422.599L522.466 384.969L484.835 390.257L490.124 427.887L527.754 422.599ZM703.538 236.322L698.25 198.692L660.62 203.981L665.908 241.611L703.538 236.322ZM666.187 243.591L703.816 238.303L709.105 275.933L671.475 281.222L666.187 243.591ZM663.928 241.889L658.639 204.259L621.011 209.547L626.299 247.177L663.928 241.889ZM626.578 249.158L664.206 243.869L669.495 281.5L631.866 286.789L626.578 249.158ZM624.319 247.456L619.03 209.826L581.4 215.114L586.689 252.744L624.319 247.456ZM586.967 254.725L624.597 249.436L629.886 287.067L592.256 292.355L586.967 254.725ZM584.708 253.022L579.42 215.393L541.789 220.681L547.078 258.311L584.708 253.022ZM547.356 260.292L584.987 255.003L590.275 292.634L552.645 297.922L547.356 260.292ZM465.876 269.723L460.587 232.093L422.957 237.382L428.246 275.012L465.876 269.723ZM428.524 276.992L466.154 271.704L471.443 309.335L433.813 314.623L428.524 276.992ZM426.265 275.29L420.977 237.66L383.346 242.949L388.635 280.579L426.265 275.29ZM388.913 282.559L426.543 277.271L431.832 314.902L394.202 320.19L388.913 282.559ZM386.654 280.857L381.366 243.227L343.736 248.516L349.024 286.146L386.654 280.857ZM349.303 288.126L386.933 282.838L392.221 320.468L354.591 325.757L349.303 288.126ZM347.044 286.424L341.755 248.794L304.126 254.083L309.415 291.712L347.044 286.424ZM309.693 293.693L347.322 288.405L352.611 326.035L314.982 331.324L309.693 293.693ZM307.434 291.991L302.146 254.361L264.516 259.65L269.804 297.279L307.434 291.991ZM270.083 299.26L307.713 293.971L313.001 331.602L275.371 336.891L270.083 299.26ZM267.824 297.558L262.535 259.928L224.905 265.216L230.193 302.846L267.824 297.558ZM230.472 304.827L268.102 299.538L273.391 337.169L235.76 342.458L230.472 304.827ZM228.213 303.125L222.924 265.495L185.294 270.783L190.583 308.413L228.213 303.125ZM190.861 310.394L228.491 305.105L233.78 342.736L196.15 348.025L190.861 310.394ZM188.602 308.692L183.313 271.062L145.683 276.35L150.972 313.98L188.602 308.692ZM151.25 315.961L188.88 310.672L194.169 348.303L156.539 353.591L151.25 315.961ZM369.311 444.866L331.683 450.155L326.394 412.525L364.023 407.237L369.311 444.866ZM363.745 405.256L326.116 410.544L320.827 372.914L358.456 367.625L363.745 405.256ZM324.135 410.823L318.846 373.192L281.216 378.481L286.505 416.111L324.135 410.823ZM358.178 365.645L320.549 370.933L315.26 333.304L352.889 328.016L358.178 365.645ZM318.568 371.212L313.28 333.583L275.65 338.871L280.938 376.5L318.568 371.212ZM341.477 246.814L303.848 252.102L298.56 214.472L336.188 209.184L341.477 246.814ZM301.868 252.38L296.579 214.751L258.949 220.039L264.237 257.669L301.868 252.38ZM335.91 207.203L298.281 212.492L292.993 174.861L330.621 169.573L335.91 207.203ZM296.301 212.77L291.012 175.139L253.382 180.428L258.67 218.059L296.301 212.77ZM330.343 167.592L292.714 172.88L287.426 135.251L325.055 129.962L330.343 167.592ZM290.734 173.159L285.445 135.529L247.815 140.818L253.103 178.447L290.734 173.159ZM313.642 48.759L276.013 54.0474L270.725 16.4176L308.354 11.1292L313.642 48.759ZM274.033 54.3258L268.744 16.696L231.114 21.9845L236.403 59.6143L274.033 54.3258ZM308.075 9.14867L270.446 14.4371L265.158 -23.1928L302.787 -28.4812L308.075 9.14867ZM268.466 14.7154L263.177 -22.9144L225.547 -17.6258L230.836 20.004L268.466 14.7154ZM302.509 -30.4617L264.88 -25.1733L259.591 -62.8041L297.22 -68.0925L302.509 -30.4617ZM262.899 -24.8949L257.61 -62.5258L219.98 -57.2372L225.269 -19.6064L262.899 -24.8949ZM296.941 -70.0731L259.313 -64.7847L254.024 -102.414L291.653 -107.703L296.941 -70.0731ZM257.332 -64.5063L252.044 -102.136L214.413 -96.8476L219.702 -59.2177L257.332 -64.5063ZM329.702 450.433L324.413 412.803L286.783 418.092L292.072 455.722L329.702 450.433ZM648.147 -157.805L610.517 -152.516L615.806 -114.887L653.436 -120.175L648.147 -157.805ZM608.537 -152.238L570.908 -146.95L576.197 -109.32L613.825 -114.608L608.537 -152.238ZM568.928 -146.671L531.298 -141.383L536.587 -103.753L574.216 -109.042L568.928 -146.671ZM529.318 -141.104L491.687 -135.816L496.975 -98.186L534.606 -103.475L529.318 -141.104ZM410.485 -124.404L372.855 -119.115L378.143 -81.4852L415.773 -86.7738L410.485 -124.404ZM370.874 -118.837L333.244 -113.548L338.532 -75.9183L376.163 -81.2069L370.874 -118.837ZM331.263 -113.27L293.634 -107.981L298.922 -70.3514L336.552 -75.6399L331.263 -113.27ZM212.433 -96.5692L174.802 -91.2806L180.091 -53.6508L217.721 -58.9394L212.433 -96.5692ZM172.822 -91.0023L135.192 -85.7137L140.48 -48.0839L178.11 -53.3724L172.822 -91.0023ZM133.211 -85.4353L95.5807 -80.1467L100.869 -42.5169L138.5 -47.8055L133.211 -85.4353ZM720.517 357.135L725.806 394.764L688.176 400.053L682.887 362.423L720.517 357.135ZM714.95 317.523L720.239 355.154L682.609 360.443L677.32 322.812L714.95 317.523ZM709.383 277.914L714.672 315.543L677.042 320.831L671.754 283.202L709.383 277.914ZM692.683 159.082L697.971 196.712L660.341 202L655.053 164.37L692.683 159.082ZM687.116 119.471L692.404 157.101L654.774 162.39L649.486 124.759L687.116 119.471ZM681.549 79.8602L686.837 117.49L649.208 122.779L643.919 85.1487L681.549 79.8602ZM664.848 -38.9728L670.137 -1.34299L632.507 3.94555L627.218 -33.6843L664.848 -38.9728ZM659.281 -78.5832L664.57 -40.9533L626.94 -35.6648L621.651 -73.2946L659.281 -78.5832ZM653.714 -118.195L659.003 -80.5637L621.373 -75.2752L616.084 -112.906L653.714 -118.195ZM128.982 157.518L134.271 195.148L171.901 189.86L166.613 152.23L128.982 157.518ZM168.593 151.951L173.882 189.581L211.512 184.293L206.223 146.663L168.593 151.951ZM208.204 146.384L213.493 184.014L251.123 178.726L245.834 141.096L208.204 146.384ZM327.035 129.684L332.324 167.314L369.953 162.025L364.665 124.395L327.035 129.684ZM366.645 124.117L371.934 161.747L409.564 156.458L404.276 118.828L366.645 124.117ZM406.256 118.55L411.545 156.18L449.175 150.891L443.887 113.261L406.256 118.55ZM525.088 101.849L530.377 139.479L568.008 134.19L562.719 96.5606L525.088 101.849ZM564.7 96.2823L569.988 133.912L607.618 128.624L602.329 90.9937L564.7 96.2823ZM604.31 90.7154L609.599 128.345L647.227 123.057L641.938 85.4271L604.31 90.7154ZM378.422 -79.5047L416.052 -84.7933L421.34 -47.1624L383.71 -41.8739L378.422 -79.5047ZM383.989 -39.8933L421.619 -45.1819L426.907 -7.55207L389.277 -2.26349L383.989 -39.8933ZM389.555 -0.282955L427.186 -5.57154L432.474 32.0583L394.844 37.3469L389.555 -0.282955ZM411.823 158.16L449.453 152.872L454.742 190.503L417.112 195.791L411.823 158.16ZM417.39 197.772L455.02 192.483L460.309 230.113L422.679 235.402L417.39 197.772ZM434.091 316.604L471.721 311.315L477.01 348.944L439.379 354.233L434.091 316.604ZM439.658 356.213L477.288 350.925L482.577 388.555L444.946 393.844L439.658 356.213ZM445.225 395.824L482.855 390.536L488.143 428.166L450.513 433.454L445.225 395.824ZM156.817 355.572L162.105 393.201L199.736 387.912L194.447 350.283L156.817 355.572ZM196.428 350.005L201.716 387.634L239.346 382.345L234.058 344.716L196.428 350.005ZM236.039 344.438L241.327 382.067L278.957 376.778L273.669 339.15L236.039 344.438ZM354.87 327.738L360.158 365.366L397.788 360.078L392.5 322.449L354.87 327.738ZM394.48 322.171L399.768 359.8L437.399 354.511L432.11 316.882L394.48 322.171ZM552.923 299.903L558.211 337.532L595.842 332.243L590.554 294.614L552.923 299.903ZM592.534 294.336L597.823 331.965L635.452 326.676L630.164 289.047L592.534 294.336ZM632.145 288.769L637.433 326.398L675.061 321.11L669.773 283.481L632.145 288.769ZM180.369 -51.6703L218 -56.9589L223.288 -19.328L185.658 -14.0394L180.369 -51.6703ZM185.936 -12.0589L223.567 -17.3475L228.855 20.2823L191.225 25.5709L185.936 -12.0589ZM191.503 27.5515L229.134 22.2629L234.422 59.8927L196.792 65.1813L191.503 27.5515ZM213.771 185.995L251.401 180.706L256.69 218.337L219.06 223.626L213.771 185.995ZM219.338 225.606L256.968 220.318L262.257 257.947L224.626 263.236L219.338 225.606ZM241.605 384.048L279.236 378.759L284.524 416.39L246.894 421.678L241.605 384.048ZM247.172 423.659L284.803 418.37L290.091 456L252.461 461.289L247.172 423.659ZM101.148 -40.5364L106.436 -2.90553L144.067 -8.19414L138.778 -45.825L101.148 -40.5364ZM140.758 -46.1033L146.047 -8.47248L183.677 -13.7611L178.389 -51.3919L140.758 -46.1033ZM299.2 -68.3709L304.489 -30.74L342.119 -36.0286L336.83 -73.6594L299.2 -68.3709ZM338.811 -73.9377L344.099 -36.3069L381.73 -41.5955L376.441 -79.2263L338.811 -73.9377ZM497.254 -96.2055L502.542 -58.5746L540.173 -63.8633L534.884 -101.494L497.254 -96.2055ZM536.865 -101.772L542.154 -64.1416L579.783 -69.4301L574.495 -107.061L536.865 -101.772ZM576.475 -107.339L581.764 -69.7085L619.392 -74.9968L614.104 -112.628L576.475 -107.339ZM680.907 362.701L686.195 400.331L648.567 405.62L643.278 367.99L680.907 362.701ZM675.34 323.09L680.628 360.721L643 366.009L637.711 328.379L675.34 323.09ZM653.072 164.649L658.361 202.279L620.732 207.567L615.444 169.937L653.072 164.649ZM647.505 125.037L652.794 162.668L615.166 167.957L609.877 130.326L647.505 125.037ZM625.238 -33.4059L630.526 4.2239L592.898 9.51222L587.609 -28.1176L625.238 -33.4059ZM619.671 -73.0163L624.959 -35.3864L587.331 -30.0981L582.042 -67.728L619.671 -73.0163ZM134.549 197.129L139.838 234.759L177.468 229.471L172.18 191.84L134.549 197.129ZM174.16 191.562L179.449 229.193L217.079 223.904L211.79 186.273L174.16 191.562ZM332.602 169.294L337.891 206.925L375.52 201.636L370.232 164.006L332.602 169.294ZM372.212 163.727L377.501 201.358L415.131 196.069L409.843 158.439L372.212 163.727ZM530.655 141.46L535.944 179.09L573.575 173.802L568.286 136.171L530.655 141.46ZM570.267 135.893L575.555 173.523L613.185 168.235L607.896 130.604L570.267 135.893ZM344.378 -34.3264L382.008 -39.615L387.297 -1.98515L349.666 3.30346L344.378 -34.3264ZM349.945 5.28399L387.575 -0.00460904L392.863 37.6252L355.233 42.9138L349.945 5.28399ZM377.779 203.339L415.41 198.05L420.698 235.68L383.068 240.968L377.779 203.339ZM400.047 361.78L437.677 356.491L442.966 394.122L405.335 399.411L400.047 361.78ZM405.614 401.391L443.244 396.103L448.533 433.733L410.902 439.021L405.614 401.391ZM162.384 395.181L167.672 432.812L205.303 427.524L200.014 389.893L162.384 395.181ZM201.995 389.614L207.283 427.245L244.913 421.957L239.625 384.326L201.995 389.614ZM360.436 367.347L365.725 404.978L403.355 399.689L398.066 362.058L360.436 367.347ZM558.49 339.512L563.778 377.143L601.409 371.854L596.12 334.224L558.49 339.512ZM598.101 333.945L603.39 371.576L641.019 366.288L635.731 328.657L598.101 333.945ZM146.326 -6.49195L183.956 -11.7805L189.244 25.8493L151.614 31.1379L146.326 -6.49195ZM151.892 33.1184L189.523 27.8298L194.811 65.4596L157.181 70.7482L151.892 33.1184ZM179.727 231.173L217.357 225.884L222.646 263.514L185.016 268.803L179.727 231.173ZM207.562 429.226L245.192 423.937L250.48 461.567L212.85 466.856L207.562 429.226ZM106.715 -0.924997L112.003 36.7048L149.633 31.4162L144.345 -6.2136L106.715 -0.924997ZM304.767 -28.7595L310.056 8.87032L347.686 3.5818L342.397 -34.048L304.767 -28.7595ZM502.821 -56.5941L508.109 -18.9643L545.74 -24.2529L540.451 -61.8827L502.821 -56.5941ZM542.432 -62.1611L547.72 -24.5313L585.35 -29.8198L580.062 -67.4496L542.432 -62.1611ZM641.298 368.268L646.586 405.898L608.957 411.186L603.668 373.557L641.298 368.268ZM613.463 170.215L618.752 207.845L581.122 213.134L575.834 175.504L613.463 170.215ZM585.629 -27.8392L590.917 9.79057L553.287 15.0791L547.999 -22.5507L585.629 -27.8392ZM140.116 236.74L145.405 274.37L183.035 269.081L177.747 231.451L140.116 236.74ZM338.169 208.905L343.458 246.535L381.087 241.247L375.799 203.617L338.169 208.905ZM536.222 181.071L541.511 218.701L579.142 213.412L573.853 175.782L536.222 181.071ZM310.334 10.8509L347.964 5.56234L353.253 43.1922L315.623 48.4807L310.334 10.8509ZM366.003 406.958L403.633 401.67L408.922 439.3L371.292 444.588L366.003 406.958ZM167.951 434.793L173.239 472.423L210.87 467.134L205.581 429.504L167.951 434.793ZM564.057 379.124L569.345 416.753L606.976 411.465L601.687 373.835L564.057 379.124ZM112.281 38.6854L149.912 33.3968L155.2 71.0266L117.57 76.3152L112.281 38.6854ZM508.388 -16.9837L513.676 20.6461L551.307 15.3574L546.018 -22.2724L508.388 -16.9837Z" fill="#E3E3E3"/>
</svg>
