<svg width="46" height="46" viewBox="0 0 46 46" fill="none" xmlns="http://www.w3.org/2000/svg">
<rect width="46" height="46" rx="8.07018" fill="url(#paint0_linear_2487_7164)"/>
<path fill-rule="evenodd" clip-rule="evenodd" d="M17.5015 21.7027V19.9064C17.5015 16.6472 20.1436 14.0051 23.4028 14.0051C26.662 14.0051 29.3042 16.6472 29.3042 19.9064V21.7027C30.2788 21.7755 30.9134 21.9592 31.3773 22.4232C32.1455 23.1914 32.1455 24.4278 32.1455 26.9006C32.1455 29.3734 32.1455 30.6098 31.3773 31.378C30.6091 32.1462 29.3727 32.1462 26.8999 32.1462H19.9058C17.433 32.1462 16.1966 32.1462 15.4284 31.378C14.6602 30.6098 14.6602 29.3734 14.6602 26.9006C14.6602 24.4278 14.6602 23.1914 15.4284 22.4232C15.8923 21.9592 16.5269 21.7755 17.5015 21.7027ZM18.8129 19.9064C18.8129 17.3715 20.8679 15.3165 23.4028 15.3165C25.9378 15.3165 27.9928 17.3715 27.9928 19.9064V21.6581C27.6579 21.655 27.2947 21.655 26.8999 21.655H19.9058C19.511 21.655 19.1478 21.655 18.8129 21.6581V19.9064Z" fill="white"/>
<defs>
<linearGradient id="paint0_linear_2487_7164" x1="46" y1="23" x2="2.43769e-07" y2="23" gradientUnits="userSpaceOnUse">
<stop stop-color="#FFA000"/>
<stop offset="1" stop-color="#FF6F00"/>
</linearGradient>
</defs>
</svg>
